# xmcd CD database file
#
# Track frame offsets:
#	150
#	16767
#	37817
#	53125
#	75190
#	99065
#	113477
#	138640
#	156652
#	176840
#	195075
#	220037
#
# Disc length: 3139 seconds
#
# Revision: 1
# Processed by: cddbd v1.4PL0 Copyright (c) Steve Scherf et al.
# Submitted via: CDex 1.51
#
DISCID=860c410c
DTITLE=Various Artist - don't stumble - a view on a blueslabel
DYEAR=1900
DGENRE=Blues
TTITLE0=Paddy Korn and White Bread - Stumble 
TTITLE1=B.B. and The Blues Shacks - The World keeps going 'round
TTITLE2=Tom Shaka - Delta Queen
TTITLE3=B.B. and The Blues Shacks - She's got her eyes on me
TTITLE4=Memo Gonzalez and The Bluescasters - Hey, Little Girl
TTITLE5=Abi Wallenstein - New York City
TTITLE6=Paddy Korn and White Bread - My Babe
TTITLE7=B.B. and The Blues Shacks - Little Mae
TTITLE8=Tom Shaka - Goin' Back to Texas
TTITLE9=Memo Gonzalez and The Bluescasters - Sweet Little Thing
TTITLE10=Abi Wallenstein - Right Kind of Life
TTITLE11=B.B. and The Blues Shacks - The Slow Walk
EXTD=
EXTT0=
EXTT1=
EXTT2=
EXTT3=
EXTT4=
EXTT5=
EXTT6=
EXTT7=
EXTT8=
EXTT9=
EXTT10=
EXTT11=
PLAYORDER=
